<svg width="32" height="32" viewBox="0 0 32 32" fill="none" xmlns="http://www.w3.org/2000/svg">
<path d="M32 10.6667C32 15.2673 29.0874 19.1877 25.0055 20.6844V0.648925C29.0874 2.14564 32 6.06601 32 10.6667Z" fill="black"/>
<path d="M21.3333 10.6667V0C15.4423 0 10.6667 4.77563 10.6667 10.6667C4.77563 10.6667 5.41979e-07 15.4423 0 21.3333L10.6667 21.3333V10.6667H21.3333Z" fill="black"/>
<path d="M14.3388 21.3333V31.3511C18.4207 29.8544 21.3333 25.934 21.3333 21.3333H14.3388Z" fill="black"/>
<path d="M10.6667 25.0055H0.648927C2.14564 29.0874 6.06601 32 10.6667 32L10.6667 25.0055Z" fill="black"/>
<path d="M21.3333 16C21.3333 14.986 20.5113 14.1639 19.4973 14.1639H14.1639V17.8361H19.4973C20.5113 17.8361 21.3333 17.014 21.3333 16V16Z" fill="black"/>
</svg>
